<svg width="80" height="14" viewBox="0 0 80 14" fill="none" xmlns="http://www.w3.org/2000/svg">
<path d="M7.46651 4.65489C7.11651 4.30489 6.69651 4.02489 6.22984 3.83823C5.76318 3.62823 5.24984 3.53489 4.71318 3.53489C4.17651 3.53489 3.66318 3.62823 3.19651 3.83823C2.75318 4.02489 2.35651 4.28156 2.00651 4.60823V1.52823C2.00651 1.36489 1.93651 1.22489 1.84318 1.10823C1.60984 0.874894 1.23651 0.874894 1.00318 1.10823C0.88651 1.20156 0.839844 1.34156 0.839844 1.52823V10.6049C0.839844 10.7682 0.909844 10.9082 1.02651 11.0249C1.25984 11.2582 1.65651 11.2582 1.86651 11.0249C1.98318 10.9082 2.02984 10.7682 2.02984 10.6049V10.1849C2.37984 10.5116 2.77651 10.7682 3.21984 10.9782C3.68651 11.1882 4.19984 11.2816 4.73651 11.2816C5.27318 11.2816 5.78651 11.1882 6.25318 10.9782C6.71984 10.7682 7.13984 10.4882 7.48984 10.1382C7.83984 9.78823 8.11984 9.36823 8.32984 8.90156C8.53984 8.4349 8.63318 7.92156 8.63318 7.38489C8.63318 6.84823 8.53984 6.33489 8.32984 5.86823C8.09651 5.40156 7.81651 5.00489 7.46651 4.65489ZM7.41984 7.38489C7.41984 7.75823 7.34984 8.10823 7.20984 8.4349C7.06984 8.76156 6.88318 9.04156 6.64984 9.29823C6.41651 9.53156 6.11318 9.74156 5.78651 9.88156C5.13318 10.1616 4.31651 10.1616 3.66318 9.88156C3.33651 9.74156 3.05651 9.53156 2.79984 9.29823C2.56651 9.0649 2.35651 8.76156 2.23984 8.4349C2.09984 8.10823 2.02984 7.75823 2.02984 7.38489C2.02984 7.01156 2.09984 6.66156 2.23984 6.33489C2.37984 6.00823 2.56651 5.72823 2.82318 5.47156C3.05651 5.23823 3.35984 5.02823 3.68651 4.88823C4.01318 4.74823 4.36318 4.67823 4.73651 4.67823C5.10984 4.67823 5.48318 4.74823 5.80984 4.88823C6.13651 5.02823 6.41651 5.21489 6.67318 5.44823C6.90651 5.68156 7.11651 5.98489 7.23318 6.31156C7.34984 6.68489 7.41984 7.03489 7.41984 7.38489Z" fill="#636466"/>
<path d="M17.4536 1.52826C17.4536 1.36493 17.3836 1.22493 17.2669 1.10826C17.0336 0.874926 16.6369 0.89826 16.4269 1.10826C16.3103 1.22493 16.2636 1.36493 16.2636 1.52826V4.58493C15.9836 4.32826 15.6803 4.09493 15.3536 3.93159C14.8169 3.65159 14.2336 3.51159 13.5803 3.51159C13.0436 3.51159 12.5536 3.60493 12.0636 3.81493C11.5969 4.02493 11.1769 4.28159 10.8269 4.63159C10.4769 4.98159 10.1969 5.40159 9.98693 5.86826C9.77693 6.33493 9.68359 6.84826 9.68359 7.38493C9.68359 7.92159 9.77693 8.43493 9.98693 8.90159C10.1969 9.36826 10.4769 9.78826 10.8269 10.1383C11.1769 10.4883 11.5969 10.7683 12.0636 10.9783C12.5303 11.1883 13.0436 11.2816 13.5803 11.2816C14.2103 11.2816 14.8169 11.1416 15.3536 10.8616C15.7036 10.6749 16.0069 10.4649 16.2636 10.2083V10.6049C16.2636 10.7683 16.3336 10.9083 16.4269 11.0249C16.6603 11.2583 17.0336 11.2583 17.2669 11.0249C17.3836 10.9083 17.4536 10.7683 17.4536 10.6049V1.52826ZM12.5069 9.85826C12.1803 9.71826 11.9003 9.53159 11.6669 9.27493C11.4336 9.04159 11.2236 8.73826 11.1069 8.41159C10.9669 8.08493 10.8969 7.73493 10.8969 7.36159C10.8969 6.98826 10.9669 6.63826 11.1069 6.31159C11.2469 5.98493 11.4336 5.70493 11.6669 5.47159C11.9003 5.23826 12.2036 5.02826 12.5303 4.91159C12.8569 4.77159 13.2069 4.70159 13.5803 4.70159C13.9536 4.70159 14.3036 4.77159 14.6303 4.91159C14.9569 5.05159 15.2369 5.23826 15.4936 5.47159C15.7269 5.70493 15.9369 6.00826 16.0536 6.31159C16.1936 6.63826 16.2636 6.98826 16.2636 7.36159C16.2636 7.73493 16.1936 8.08493 16.0536 8.41159C15.9136 8.73826 15.7269 9.01826 15.4936 9.27493C15.2603 9.50826 14.9803 9.71826 14.6536 9.85826C13.9769 10.1383 13.1603 10.1383 12.5069 9.85826Z" fill="#636466"/>
<path d="M19.8328 1.38818C19.6461 1.38818 19.4595 1.45818 19.3428 1.59818C19.2028 1.73818 19.1328 1.90152 19.1328 2.08818C19.1328 2.27485 19.2028 2.43818 19.3428 2.57818C19.4828 2.71818 19.6461 2.78818 19.8328 2.78818C20.0428 2.78818 20.2061 2.71818 20.3461 2.57818C20.4861 2.43818 20.5561 2.27485 20.5561 2.08818C20.5561 1.87818 20.4861 1.71485 20.3461 1.57485C20.2061 1.45818 20.0195 1.38818 19.8328 1.38818Z" fill="#636466"/>
<path d="M19.4123 3.69819C19.2956 3.81486 19.249 3.95486 19.249 4.11819V10.8849C19.249 11.0482 19.2256 11.2115 19.1556 11.3749C19.0856 11.5149 18.9923 11.6549 18.8756 11.7715C18.759 11.8882 18.619 11.9815 18.479 12.0515C18.339 12.1215 18.1756 12.1449 17.989 12.1449H17.8723C17.709 12.1449 17.569 12.2149 17.4523 12.3082C17.3356 12.4249 17.2656 12.5649 17.2656 12.7282C17.2656 12.8915 17.3356 13.0315 17.4523 13.1482C17.569 13.2649 17.709 13.3115 17.8723 13.3115C17.8956 13.3115 17.8956 13.3115 17.919 13.3115H17.989C18.3156 13.3115 18.619 13.2415 18.9223 13.1249C19.2256 13.0082 19.4823 12.8215 19.6923 12.6115C19.9023 12.4015 20.089 12.1449 20.229 11.8415C20.369 11.5382 20.439 11.2349 20.439 10.9082V4.14153C20.439 3.97819 20.369 3.81486 20.2756 3.69819C20.0423 3.46486 19.6456 3.46486 19.4123 3.69819Z" fill="#636466"/>
<path d="M28.4195 4.65493C28.0695 4.30493 27.6495 4.02493 27.1829 3.81493C26.7162 3.60493 26.2029 3.5116 25.6662 3.5116C25.1295 3.5116 24.6395 3.60493 24.1495 3.81493C23.6829 4.02493 23.2629 4.30493 22.9129 4.65493C22.5629 5.00493 22.2829 5.42493 22.0729 5.8916C21.8629 6.35826 21.7695 6.8716 21.7695 7.40826C21.7695 7.94493 21.8629 8.43493 22.0729 8.92493C22.2829 9.3916 22.5629 9.8116 22.9129 10.1616C23.2629 10.5116 23.6829 10.7916 24.1495 11.0016C24.6162 11.2116 25.1295 11.3049 25.6662 11.3049C26.2029 11.3049 26.7162 11.2116 27.1829 11.0016C27.6495 10.7916 28.0695 10.5116 28.4195 10.1616C28.7695 9.8116 29.0495 9.3916 29.2595 8.92493C29.4695 8.45826 29.5629 7.94493 29.5629 7.40826C29.5629 6.8716 29.4695 6.35826 29.2595 5.8916C29.0495 5.42493 28.7695 5.00493 28.4195 4.65493ZM22.9829 7.40826C22.9829 7.03493 23.0529 6.68493 23.1929 6.35826C23.3329 6.0316 23.5195 5.7516 23.7529 5.49493C23.9862 5.2616 24.2895 5.0516 24.6162 4.9116C24.9429 4.7716 25.2929 4.7016 25.6662 4.7016C26.0395 4.7016 26.3895 4.7716 26.7162 4.9116C27.0429 5.0516 27.3229 5.23826 27.5795 5.49493C27.8129 5.72826 28.0229 6.0316 28.1395 6.35826C28.2795 6.68493 28.3495 7.03493 28.3495 7.40826C28.3495 7.7816 28.2795 8.1316 28.1395 8.43493C27.9995 8.7616 27.8129 9.0416 27.5795 9.29826C27.3462 9.5316 27.0662 9.7416 26.7395 9.8816C26.0862 10.1616 25.2695 10.1616 24.6395 9.8816C24.3129 9.7416 24.0329 9.5316 23.7762 9.29826C23.5429 9.06493 23.3329 8.7616 23.2162 8.43493C23.0529 8.1316 22.9829 7.7816 22.9829 7.40826Z" fill="#636466"/>
<path d="M37.568 4.65489C37.218 4.30489 36.798 4.02489 36.3313 3.83823C35.8646 3.62823 35.3513 3.53489 34.8146 3.53489C34.278 3.53489 33.7646 3.62823 33.298 3.83823C32.8546 4.02489 32.458 4.28156 32.108 4.60823V1.52823C32.108 1.36489 32.038 1.22489 31.9446 1.10823C31.7113 0.874894 31.338 0.874894 31.1046 1.10823C30.988 1.22489 30.918 1.36489 30.918 1.52823V10.6049C30.918 10.7682 30.988 10.9082 31.1046 11.0249C31.338 11.2582 31.7346 11.2582 31.9446 11.0249C32.0613 10.9082 32.108 10.7682 32.108 10.6049V10.1849C32.458 10.5116 32.8546 10.7682 33.298 10.9782C33.7646 11.1882 34.278 11.2816 34.8146 11.2816C35.3513 11.2816 35.8646 11.1882 36.3313 10.9782C36.798 10.7682 37.218 10.4882 37.568 10.1382C37.918 9.78823 38.198 9.36823 38.408 8.90156C38.618 8.4349 38.7113 7.92156 38.7113 7.38489C38.7113 6.84823 38.618 6.33489 38.408 5.86823C38.198 5.40156 37.918 5.00489 37.568 4.65489ZM37.498 7.38489C37.498 7.75823 37.428 8.10823 37.288 8.4349C37.148 8.76156 36.9613 9.04156 36.728 9.29823C36.4946 9.53156 36.1913 9.74156 35.8646 9.88156C35.2113 10.1616 34.3946 10.1616 33.7413 9.88156C33.4146 9.74156 33.1346 9.53156 32.878 9.29823C32.6446 9.0649 32.4346 8.76156 32.318 8.4349C32.178 8.10823 32.108 7.75823 32.108 7.38489C32.108 7.01156 32.178 6.66156 32.318 6.33489C32.458 6.00823 32.6446 5.72823 32.9013 5.47156C33.1346 5.23823 33.438 5.02823 33.7646 4.88823C34.0913 4.74823 34.4413 4.67823 34.8146 4.67823C35.188 4.67823 35.5613 4.74823 35.888 4.88823C36.2146 5.02823 36.4946 5.21489 36.7513 5.44823C36.9846 5.68156 37.1946 5.98489 37.3113 6.31156C37.428 6.68489 37.498 7.03489 37.498 7.38489Z" fill="#636466"/>
<path d="M44.8242 8.08488C44.6842 7.85154 44.4742 7.61821 44.2176 7.45488C43.9842 7.29154 43.6809 7.15154 43.3776 7.03488C43.0742 6.91821 42.7476 6.82488 42.3976 6.70821C42.1876 6.63821 42.0009 6.59154 41.8142 6.52154C41.6509 6.45154 41.4876 6.38154 41.3709 6.28821C41.2542 6.19488 41.1609 6.10154 41.0909 5.98488C41.0209 5.89154 40.9976 5.75154 40.9976 5.58821C40.9976 5.40154 41.0442 5.26154 41.1142 5.14488C41.1842 5.02821 41.3009 4.93488 41.4176 4.84154C41.5576 4.77154 41.6976 4.70154 41.8609 4.67821C42.3509 4.56154 42.8409 4.60821 43.1909 4.79488C43.4242 4.91154 43.6342 5.12154 43.8442 5.37821L43.8676 5.42488L43.9142 5.44821C44.0309 5.51821 44.1476 5.54154 44.2876 5.49488C44.4042 5.47154 44.4976 5.42488 44.5909 5.33154C44.7542 5.16821 44.8009 4.91154 44.6609 4.67821C44.5442 4.46821 44.4042 4.30488 44.2409 4.14155C44.0776 4.00155 43.8909 3.86154 43.6809 3.76821C43.4709 3.67488 43.2609 3.60488 43.0276 3.55821C42.5142 3.46488 41.9542 3.46488 41.4409 3.60488C41.1376 3.69821 40.8576 3.81488 40.6242 3.97821C40.3676 4.14154 40.1809 4.37488 40.0176 4.63155C39.8542 4.88821 39.7842 5.21488 39.7842 5.56488C39.7842 5.89155 39.8542 6.17154 39.9942 6.42821C40.1342 6.66154 40.3209 6.87154 40.5309 7.03488C40.7409 7.19821 40.9976 7.33821 41.2542 7.45488C41.5109 7.57154 41.7909 7.66488 42.0709 7.75821C42.3276 7.82821 42.5842 7.92154 42.8176 7.99154C43.0509 8.06154 43.2376 8.15488 43.4009 8.27154C43.5642 8.36488 43.6809 8.48154 43.7509 8.59821C43.8209 8.71488 43.8676 8.85488 43.8676 9.01821C43.8676 9.18154 43.8209 9.32155 43.7509 9.46154C43.6809 9.60154 43.5642 9.71821 43.4242 9.81154C43.2842 9.90488 43.1209 9.99821 42.9342 10.0449C42.7476 10.0915 42.5609 10.1382 42.3509 10.1382C41.9542 10.1382 41.6042 10.0682 41.3242 9.92821C41.0676 9.78821 40.8576 9.60154 40.6709 9.29821L40.6476 9.27488C40.5309 9.13488 40.3909 9.04154 40.2509 9.01821C40.1109 8.99488 39.9709 9.01821 39.8542 9.08821C39.7376 9.15821 39.6442 9.27488 39.5976 9.41488C39.5509 9.55488 39.5742 9.71821 39.6676 9.88155C39.7842 10.1149 39.9476 10.3249 40.1342 10.4882C40.3209 10.6515 40.5309 10.7915 40.7642 10.9082C40.9976 11.0249 41.2542 11.0949 41.5109 11.1649C41.7676 11.2115 42.0476 11.2349 42.3276 11.2349C42.7009 11.2349 43.0276 11.1882 43.3542 11.0715C43.6809 10.9549 43.9609 10.7915 44.1942 10.6049C44.4509 10.3949 44.6376 10.1615 44.7776 9.88155C44.9176 9.60154 44.9876 9.29821 44.9876 8.97154C45.0576 8.64488 44.9642 8.34154 44.8242 8.08488Z" fill="#636466"/>
<path d="M69.6709 13.44H47.5742L49.0909 5.80995C49.6742 2.84662 52.2642 0.699951 55.2976 0.699951H78.4909L77.2309 7.06995C76.5076 10.78 73.3342 13.44 69.6709 13.44Z" fill="#0DB14B"/>
<path d="M53.5932 10.5233H51.7266L53.6166 3.24329C53.6166 3.24329 56.3232 3.24329 57.2566 3.24329C58.1899 3.24329 59.0066 4.03662 58.7266 5.45995C58.4466 6.90662 57.4899 7.86329 56.7666 8.21329C56.0432 8.56329 54.2699 8.37662 54.2699 8.37662L53.5932 10.5233ZM55.7166 6.69662C56.2299 6.71995 56.6732 6.53329 56.8832 6.18329C57.0932 5.85662 57.3032 4.99329 56.3466 4.99329C55.3899 4.99329 55.1799 4.99329 55.1799 4.99329C55.1799 4.99329 54.6666 6.57995 54.6899 6.62662C54.7132 6.62662 55.2032 6.67329 55.7166 6.69662Z" fill="white"/>
<path d="M60.2915 10.5466C60.2682 10.5233 58.2148 10.5233 58.2148 10.5233L60.2915 3.21997C60.2915 3.21997 62.7415 3.21997 64.1648 3.21997C65.5882 3.21997 65.9148 4.8533 65.7515 5.87997C65.4948 7.32664 63.6048 8.11997 63.6048 8.11997L64.8882 10.57H62.5082L61.5982 8.16664H60.9448L60.2915 10.5466ZM62.4848 6.6033C62.4848 6.6033 63.2315 6.6733 63.5348 6.29997C63.8382 5.92664 63.9315 5.0633 63.2548 5.0633C62.5782 5.0633 61.7382 5.0633 61.7382 5.0633L61.3182 6.50997L62.4848 6.6033Z" fill="white"/>
<path d="M72.5893 9.40326C70.8393 11.0366 68.366 11.2699 67.0827 9.89326C65.7993 8.51659 66.196 6.08993 67.946 4.43326C69.696 2.7766 72.1693 2.5666 73.4527 3.94326C74.736 5.31993 74.3393 7.76993 72.5893 9.40326ZM71.866 5.41326C71.236 4.7366 69.9993 4.82993 69.1127 5.66993C68.226 6.4866 68.0393 7.72326 68.6693 8.39993C69.2993 9.0766 70.536 8.98326 71.4227 8.14326C72.3327 7.32659 72.5193 6.11326 71.866 5.41326Z" fill="white"/>
</svg>
